<svg width="27.36" height="22.968" viewBox="0 0 27.36 22.968" xmlns="http://www.w3.org/2000/svg"><g id="svgGroup" stroke-linecap="round" fill-rule="evenodd" font-size="9pt" stroke="#000" stroke-width="0.25mm" fill="#000" style="stroke:#000;stroke-width:0.25mm;fill:#000"><path d="M 16.2 14.304 L 16.2 22.968 L 14.016 22.968 L 14.016 3.576 L 16.2 3.576 L 16.2 6 A 4.903 4.903 0 0 1 17.456 4.574 A 6.262 6.262 0 0 1 18.132 4.116 A 5.446 5.446 0 0 1 20.195 3.42 A 6.959 6.959 0 0 1 21.12 3.36 A 6.29 6.29 0 0 1 23.542 3.823 A 6.022 6.022 0 0 1 24.3 4.2 Q 25.728 5.04 26.544 6.564 A 6.816 6.816 0 0 1 27.264 8.776 A 8.838 8.838 0 0 1 27.36 10.104 A 8.329 8.329 0 0 1 27.13 12.099 A 6.904 6.904 0 0 1 26.544 13.656 Q 25.728 15.216 24.3 16.08 Q 22.872 16.944 21.12 16.944 A 6.338 6.338 0 0 1 19.47 16.737 A 5.273 5.273 0 0 1 18.156 16.188 A 5.989 5.989 0 0 1 16.972 15.287 A 4.938 4.938 0 0 1 16.2 14.304 Z M 0 0 L 11.328 0 L 11.328 1.776 L 6.768 1.776 L 6.768 16.728 L 4.584 16.728 L 4.584 1.776 L 0 1.776 L 0 0 Z M 25.128 10.104 A 6.227 6.227 0 0 0 24.996 8.793 A 4.765 4.765 0 0 0 24.528 7.512 A 4.344 4.344 0 0 0 23.6 6.326 A 3.995 3.995 0 0 0 22.908 5.832 Q 21.888 5.256 20.664 5.256 Q 19.464 5.256 18.444 5.844 A 4.231 4.231 0 0 0 16.951 7.31 A 5.124 5.124 0 0 0 16.812 7.548 A 4.935 4.935 0 0 0 16.26 9.247 A 6.302 6.302 0 0 0 16.2 10.128 A 6.116 6.116 0 0 0 16.344 11.482 A 4.784 4.784 0 0 0 16.812 12.732 A 4.534 4.534 0 0 0 17.709 13.896 A 4.096 4.096 0 0 0 18.444 14.436 Q 19.464 15.024 20.664 15.024 Q 21.888 15.024 22.908 14.436 Q 23.928 13.848 24.528 12.732 A 4.948 4.948 0 0 0 25.043 11.185 A 6.618 6.618 0 0 0 25.128 10.104 Z" vector-effect="non-scaling-stroke"/></g></svg>