<svg width="114.001" height="95.7" viewBox="0 0 114.001 95.7" xmlns="http://www.w3.org/2000/svg"><g id="svgGroup" stroke-linecap="round" fill-rule="evenodd" font-size="9pt" stroke="#000" stroke-width="0.25mm" fill="#000" style="stroke:#000;stroke-width:0.25mm;fill:#000"><path d="M 67.5 59.6 L 67.5 95.7 L 58.4 95.7 L 58.4 14.9 L 67.5 14.9 L 67.5 25 A 20.429 20.429 0 0 1 72.732 19.058 A 26.093 26.093 0 0 1 75.55 17.15 A 22.691 22.691 0 0 1 84.145 14.249 A 28.998 28.998 0 0 1 88 14 Q 95.3 14 101.25 17.5 Q 107.2 21 110.6 27.35 Q 114 33.7 114 42.1 A 34.704 34.704 0 0 1 113.04 50.411 A 28.766 28.766 0 0 1 110.6 56.9 Q 107.2 63.4 101.25 67 Q 95.3 70.6 88 70.6 A 26.409 26.409 0 0 1 81.124 69.737 A 21.971 21.971 0 0 1 75.65 67.45 A 24.956 24.956 0 0 1 70.717 63.697 A 20.574 20.574 0 0 1 67.5 59.6 Z M 0 0 L 47.2 0 L 47.2 7.4 L 28.2 7.4 L 28.2 69.7 L 19.1 69.7 L 19.1 7.4 L 0 7.4 L 0 0 Z M 104.7 42.1 A 25.945 25.945 0 0 0 104.151 36.639 A 19.855 19.855 0 0 0 102.2 31.3 Q 99.7 26.7 95.45 24.3 Q 91.2 21.9 86.1 21.9 Q 81.1 21.9 76.85 24.35 A 17.63 17.63 0 0 0 70.628 30.459 A 21.348 21.348 0 0 0 70.05 31.45 A 20.562 20.562 0 0 0 67.749 38.529 A 26.257 26.257 0 0 0 67.5 42.2 A 25.482 25.482 0 0 0 68.098 47.843 A 19.932 19.932 0 0 0 70.05 53.05 A 18.893 18.893 0 0 0 73.789 57.9 A 17.066 17.066 0 0 0 76.85 60.15 Q 81.1 62.6 86.1 62.6 Q 91.2 62.6 95.45 60.15 A 17.346 17.346 0 0 0 101.716 53.903 A 20.968 20.968 0 0 0 102.2 53.05 A 20.615 20.615 0 0 0 104.347 46.604 A 27.574 27.574 0 0 0 104.7 42.1 Z" vector-effect="non-scaling-stroke"/></g></svg>